<svg width="150" height="25" viewBox="0 0 150 25" fill="none" xmlns="http://www.w3.org/2000/svg">
<g clip-path="url(#clip0_761_1521)">
<path d="M114.306 0.215225V19.4362C114.306 20.6899 114.901 21.3582 116.176 21.3582H122.635V23.5311C122.638 23.5869 122.63 23.6429 122.61 23.6953C122.59 23.7476 122.559 23.7952 122.518 23.8348C122.478 23.8744 122.43 23.905 122.377 23.9247C122.323 23.9444 122.267 23.9527 122.21 23.9489H111.756C108.527 23.9489 108.017 22.1941 108.017 20.6064V1.55254C108.017 0.633168 108.357 0.215225 109.462 0.215225H114.306ZM102.323 0.215225V22.6956C102.323 23.6982 101.898 23.9489 101.048 23.9489H96.1191V1.4689C96.1191 0.716652 96.3739 0.215225 97.4786 0.215225H102.323ZM0 3.47453C0 1.6361 0 0.215225 3.0595 0.215225H16.3174V2.47161C16.3213 2.51647 16.3151 2.56163 16.2994 2.60392C16.2837 2.64621 16.2587 2.68462 16.2263 2.71646C16.1939 2.74829 16.1549 2.77279 16.1118 2.78824C16.0688 2.8037 16.0229 2.80973 15.9772 2.80592H7.98865C6.96889 2.80592 6.45901 3.30742 6.45901 4.3936V10.4108H15.8075V12.8343C15.8113 12.8792 15.8051 12.9243 15.7894 12.9666C15.7737 13.0089 15.7488 13.0473 15.7165 13.0792C15.684 13.111 15.645 13.1354 15.602 13.1508C15.5589 13.1663 15.513 13.1723 15.4674 13.1686H6.45901V22.6956C6.45901 23.6146 5.94883 23.9489 4.92923 23.9489H0V3.47453ZM25.9206 0.215225V18.35C25.9206 19.9377 26.1757 21.0239 27.2804 21.609C28.1407 22.0212 29.0853 22.2354 30.0424 22.2354C30.9995 22.2354 31.9441 22.0212 32.8045 21.609C33.8245 21.0239 34.2493 20.1049 34.2493 18.35V1.38535C34.2493 0.633093 34.5044 0.215225 35.6091 0.215225H40.4533V17.765C40.6522 20.795 38.5486 23.5052 35.524 24.1162C32.034 24.9523 28.3908 24.9523 24.9008 24.1162C21.4166 23.1135 19.8017 21.1076 19.8017 17.765V1.38535C19.8017 0.633093 20.0568 0.131592 20.9914 0.131592H25.9206M142.946 0.215225C141.881 0.125811 140.922 0.851036 140.737 1.88655L136.827 18.2664H136.742L132.578 0.215225H127.054C125.949 0.215225 125.609 0.716727 125.609 1.6361V24.0325H127.989C128.329 24.0325 128.499 23.8654 128.499 23.4474V4.64435H128.839L133.853 23.9489H137.167C138.442 23.9489 138.867 23.4474 139.207 22.2776L143.711 4.64435H144.051V23.9489H148.47C149.575 23.9489 150 23.5311 150 22.5284V0.215301L142.946 0.215225ZM69.7734 13.085H63.5695V23.9489H68.4986C69.3486 23.9489 69.7734 23.6982 69.7734 22.6956V13.085Z" fill="white"/>
<path d="M69.4332 8.48883C69.5503 8.42248 69.6451 8.32371 69.7055 8.20482C69.766 8.08592 69.7896 7.95217 69.7733 7.82021V0.215332H64.9292C63.824 0.215332 63.5693 0.716833 63.5693 1.46909V13.0016L69.4332 8.48883Z" fill="#FB0020"/>
<path d="M48.1869 22.1106C50.9062 21.7763 51.7562 20.1885 51.7562 17.8486V1.46901C51.7562 0.466083 52.2661 0.215332 52.946 0.215332H57.8752V15.6758C57.8752 19.4364 57.0251 21.3583 54.8156 23.03C53.6259 23.8655 51.5862 24.8684 46.9968 24.8684C44.4474 24.8684 43.2574 24.7013 43.0877 24.7013C42.9176 24.7013 42.7476 24.5341 42.7476 24.3669V22.3614C44.0223 22.2777 46.4019 22.3614 48.1869 22.1106ZM79.2066 0.215332C76.1472 0.215332 76.1472 1.71984 76.1472 3.47464V9.57509C76.1472 9.74228 76.0621 9.74228 76.0621 9.82584L71.8129 13.0852H76.1472V23.949H81.0764C82.0961 23.949 82.6059 23.6147 82.6059 22.6957V13.0852H91.6146C91.6602 13.0889 91.706 13.0828 91.749 13.0674C91.792 13.052 91.831 13.0275 91.8634 12.9957C91.8958 12.9639 91.9208 12.9255 91.9365 12.8832C91.9522 12.8409 91.9583 12.7957 91.9544 12.7508V10.3273H82.6059V4.31015C82.569 4.09354 82.5853 3.87139 82.6534 3.66221C82.7215 3.45303 82.8395 3.26286 82.9975 3.10755C83.1554 2.95223 83.3489 2.83625 83.5617 2.76927C83.7744 2.70229 84.0004 2.68624 84.2208 2.72246H92.2094C92.2551 2.72627 92.301 2.72023 92.3439 2.70478C92.3869 2.68932 92.4259 2.66481 92.4583 2.63297C92.4907 2.60117 92.5157 2.56277 92.5314 2.52048C92.5471 2.47818 92.5532 2.43302 92.5492 2.38815V0.215332H79.2066Z" fill="white"/>
</g>
<defs>
<clipPath id="clip0_761_1521">
<rect width="150" height="25" fill="white"/>
</clipPath>
</defs>
</svg>
